<svg viewBox="0 0 32 32" fill="none" xmlns="http://www.w3.org/2000/svg">
  <defs>
    <linearGradient id="dropletGradient" x1="0%" y1="0%" x2="100%" y2="100%">
      <stop offset="0%" stop-color="#2563eb" />
      <stop offset="100%" stop-color="#06b6d4" />
    </linearGradient>
  </defs>
  
  <!-- Background -->
  <rect width="32" height="32" rx="6" fill="white"/>
  
  <!-- Droplet Shape -->
  <path
    d="M16 4C12 9 8 13 8 18c0 4.4 3.6 8 8 8s8-3.6 8-8c0-5-4-9-8-14z"
    fill="url(#dropletGradient)"
    opacity="0.2"
  />
  
  <!-- Outer Contour -->
  <path
    d="M16 4C12 9 8 13 8 18c0 4.4 3.6 8 8 8s8-3.6 8-8c0-5-4-9-8-14z"
    stroke="url(#dropletGradient)"
    stroke-width="2.5"
    fill="none"
  />
  
  <!-- Inner Contour 1 -->
  <path
    d="M16 8c-2.5 3-4.5 5.5-4.5 8.5c0 2.5 2 4.5 4.5 4.5s4.5-2 4.5-4.5c0-3-2-5.5-4.5-8.5z"
    stroke="url(#dropletGradient)"
    stroke-width="2"
    fill="none"
    opacity="0.6"
  />
  
  <!-- Inner Contour 2 -->
  <path
    d="M16 12c-1.5 2-2.5 3.5-2.5 5.5c0 1.4 1.1 2.5 2.5 2.5s2.5-1.1 2.5-2.5c0-2-1-3.5-2.5-5.5z"
    stroke="url(#dropletGradient)"
    stroke-width="2"
    fill="none"
    opacity="0.4"
  />
  
  <!-- Center Point -->
  <circle cx="16" cy="17" r="2" fill="#06b6d4" />
</svg>
